<svg xmlns="http://www.w3.org/2000/svg" xmlns:xlink="http://www.w3.org/1999/xlink" width="512" height="512" viewBox="0 0 512 512"><defs><clipPath id="b"><rect width="512" height="512"/></clipPath></defs><g id="a" clip-path="url(#b)"><rect width="512" height="512" fill="#ececec"/><g transform="translate(108.413 111.88)" opacity="0.997"><g transform="translate(12.646 4.232)"><path d="M168.33,309.059l-2.894-6.725V273.281c0-.335,5.213-1.734,5.229-1.738l4.643-74.594,2.654-40.616s4.2-13.083,2.3-13.083-146.111-1.3-146.111-1.3l-1.987,14.379,2,30.662,6.942,2.829,1.911,20.821-6.858,6.267.032,1.1,7.995,122.334a6.3,6.3,0,0,0,6.284,5.889h71.2l36.495-.017a8.365,8.365,0,0,0,8.339-7.842l1.825-29.318Z" transform="translate(-22.988 -66.04)" fill="#9b9b9b"/><g transform="translate(190.679 111.831)"><path d="M375.657,215.881a3.175,3.175,0,0,1,.045,5.725L353.644,232.35V205.572Z" transform="translate(-353.644 -205.572)" fill="#878787"/></g><g transform="translate(11.162 120.695)"><path d="M172.2,306.078,169.863,343.6l-.316-.017-2.32-2.287L115.882,300.15a65.678,65.678,0,0,1-13.07-11.19l-22.5-25.039a35,35,0,0,0-26-11.6H38.274l-.559.04H37.71l-2.027-31.052.565-.04H54.309a66.1,66.1,0,0,1,49.108,21.9l17.677,19.681,49.6,41.847Z" transform="translate(-35.683 -221.272)" fill="#f9f7f8"/><g transform="translate(102.348 31.397)"><path d="M365.252,308.883v20.032H216.963V308.883a32,32,0,0,1,32-32h84.287A32,32,0,0,1,365.252,308.883Z" transform="translate(-216.963 -276.882)" fill="#cdcdcd"/></g><path d="M283.135,276.882H248.963a32,32,0,0,0-32,32v20.032h34.172V308.883A32,32,0,0,1,283.135,276.882Z" transform="translate(-114.614 -245.485)" fill="#bebebe"/></g><g transform="translate(72.91)"><path d="M161.988,56.729V41.694a2.749,2.749,0,0,1,1.076-2.181L186.53,21.5a2.749,2.749,0,0,0,.506-3.856l-6.965-9.073a2.75,2.75,0,0,0-3.856-.507L149.437,28.62a11.219,11.219,0,0,0-4.387,8.9v48.1h17.958Z" transform="translate(-145.05 -7.495)" fill="#e5e1e5"/></g><g transform="translate(9.175 75.913)"><path d="M81.753,340.348,74.226,225.159l-8.7-12.178L67.855,194l4.045-4.423-2.173-33.245,1.941-14.043-37.518-.336-1.987,14.379,2,30.662,6.942,2.829,1.911,20.821-5.382,3.415-1.481,2.7.037,1.259,7.995,122.334a6.3,6.3,0,0,0,6.284,5.889H88.037a6.3,6.3,0,0,1-6.284-5.889Z" transform="translate(-32.163 -141.953)" fill="#878787"/><path d="M75.76,259.7l-2.326-35.581a65.908,65.908,0,0,0-19.124-2.842H36.249l-.562.039,2.029,31.052h0l.565-.04H54.31A35,35,0,0,1,75.76,259.7Z" transform="translate(-33.697 -176.49)" fill="#efedef"/><g transform="translate(10.857 180.498)"><path d="M175.867,461.652l-.988,15.927a8.365,8.365,0,0,1-8.339,7.842l-36.495.017h-71.2a6.3,6.3,0,0,1-6.284-5.889l-1.169-17.892.062-.006H175.867Z" transform="translate(-51.393 -461.652)" fill="#878787"/></g><path d="M96.41,485.438a6.3,6.3,0,0,1-6.283-5.889l-1.17-17.9h-37.5l-.062.006,1.16,17.755.009.137a6.295,6.295,0,0,0,6.284,5.889Z" transform="translate(-40.536 -281.154)" fill="#737373"/></g><path d="M125.58,409.884H88.4a6.239,6.239,0,0,1-6.239-6.239v-7.486A6.239,6.239,0,0,1,88.4,389.92H125.58a6.239,6.239,0,0,1,6.239,6.239v7.486A6.239,6.239,0,0,1,125.58,409.884Z" transform="translate(-44.756 -174.008)" fill="#f9f7f8"/><path d="M88.4,389.921a6.239,6.239,0,0,0-6.239,6.239v7.486a6.239,6.239,0,0,0,6.239,6.239h12.614l-1.3-19.964Z" transform="translate(-44.756 -174.009)" fill="#efedef"/><path d="M367.676,452.918V461.9a11.427,11.427,0,0,1-11.427,11.427H233.963A11.427,11.427,0,0,1,222.536,461.9V433.848H367.678Z" transform="translate(-105.879 -193.135)" fill="#cdcdcd"/><path d="M250.385,461.9V433.849H222.536V461.9a11.427,11.427,0,0,0,11.427,11.427h27.849A11.427,11.427,0,0,1,250.385,461.9Z" transform="translate(-105.879 -193.135)" fill="#bebebe"/><path d="M369.165,395.241H357.875V379.212H225.027v16.132h-14.61l.027,15.454.028,7.91a10.134,10.134,0,0,0,10.147,10.144,9.923,9.923,0,0,0,9.671-9.183.03.03,0,1,1,.059,0,9.922,9.922,0,0,0,19.785-.072.029.029,0,1,1,.059,0,9.922,9.922,0,0,0,19.784-.069.029.029,0,1,1,.059,0,9.922,9.922,0,0,0,19.784-.069.029.029,0,1,1,.059,0,9.922,9.922,0,0,0,19.785-.07.029.029,0,1,1,.059,0,9.922,9.922,0,0,0,19.785-.07.029.029,0,1,1,.059,0,9.922,9.922,0,0,0,19.784-.07.029.029,0,1,1,.059,0,9.922,9.922,0,0,0,19.811-.839l-.029-8.17Z" transform="translate(-100.602 -169.346)" fill="#a3a3a3"/><path d="M369.193,410.059H262.161a30.847,30.847,0,0,1-30.847-30.847h-6.287v16.132h-14.61l.027,15.454.028,7.911a10.09,10.09,0,0,0,9.868,10.146,9.922,9.922,0,0,0,9.949-9.185.03.03,0,1,1,.059,0,9.922,9.922,0,0,0,19.784-.071h.059a9.922,9.922,0,0,0,19.784-.07.029.029,0,1,1,.059,0,9.922,9.922,0,0,0,19.784-.069.029.029,0,1,1,.059,0,9.922,9.922,0,0,0,19.785-.07.029.029,0,1,1,.059,0,9.922,9.922,0,0,0,19.785-.07.029.029,0,1,1,.059,0,9.922,9.922,0,0,0,19.784-.07.029.029,0,1,1,.059,0,9.922,9.922,0,0,0,19.811-.8l-.029-8.205Z" transform="translate(-100.602 -169.346)" fill="#a3a3a3"/><path d="M250.264,386.684H214.008a9.214,9.214,0,0,0,0,18.428h36.256a9.214,9.214,0,1,0,0-18.428Z" transform="translate(-98.154 -172.599)" fill="#878787"/><path d="M226.623,397.726a9.215,9.215,0,0,1-9.031-11.042h-3.583a9.214,9.214,0,0,0,0,18.428h36.256a9.216,9.216,0,0,0,9.032-7.386Z" transform="translate(-98.154 -172.599)" fill="#737373"/><path d="M334.51,386.684H310.866a9.214,9.214,0,1,0,0,18.428h90.941a9.214,9.214,0,0,0,0-18.428h-67.3Z" transform="translate(-140.327 -172.599)" fill="#878787"/><path d="M407.624,398.205H316.683a9.214,9.214,0,0,1-9.214-9.214,9.321,9.321,0,0,1,.087-1.205,9.209,9.209,0,0,0,3.309,17.806h90.941a9.209,9.209,0,0,0,9.126-8.009,9.16,9.16,0,0,1-3.308.623Z" transform="translate(-140.327 -173.079)" fill="#737373"/><path d="M357.349,354.043H216.268a9.386,9.386,0,0,0-9.464,8.769,9.214,9.214,0,0,0,9.2,9.659h79.458l16.7,22.646a3.657,3.657,0,0,0,5.829.075l17.682-22.722h21.409a9.385,9.385,0,0,0,9.464-8.769A9.214,9.214,0,0,0,357.349,354.043Z" transform="translate(-99.024 -158.387)" fill="#dedede"/><path d="M320.025,389.782,304.787,369.12a4.883,4.883,0,0,0-3.929-1.984l-45.489-.278a12.814,12.814,0,0,1-12.736-12.814H216.269a9.386,9.386,0,0,0-9.464,8.768,9.215,9.215,0,0,0,9.2,9.66h79.458l16.7,22.647a3.657,3.657,0,0,0,5.829.075l3.348-4.3a3.632,3.632,0,0,1-1.321-1.109Z" transform="translate(-99.025 -158.387)" fill="#d8d8d8"/><path d="M172.061,101.959a7.9,7.9,0,0,0-7.445-5.26H49.439a7.9,7.9,0,0,0-7.445,5.26l-5.211,14.7-.106,10.9H177.271v-10.9Z" transform="translate(-24.954 -46.336)" fill="#eee"/><path d="M77.332,101.959a7.9,7.9,0,0,1,7.445-5.26H49.439a7.9,7.9,0,0,0-7.445,5.26l-5.211,14.7-.106,10.9H72.015l.106-10.9Z" transform="translate(-24.954 -46.336)" fill="#d3d3d3"/><path d="M175.125,152.026H20.846a4.934,4.934,0,0,1-4.934-4.934V137a4.934,4.934,0,0,1,4.934-4.935H175.125A4.934,4.934,0,0,1,180.06,137v10.1A4.935,4.935,0,0,1,175.125,152.026Z" transform="translate(-15.912 -61.733)" fill="#d3d3d3"/><path d="M60.447,147.091V137a4.931,4.931,0,0,1,2.8-4.444l1.142-.491H20.846a4.934,4.934,0,0,0-4.934,4.934v10.1a4.934,4.934,0,0,0,4.934,4.934H65.382a4.934,4.934,0,0,1-4.934-4.934Z" transform="translate(-15.912 -61.732)" fill="#c3c3c3"/></g><g transform="translate(8.411 0)"><path d="M369.816,312.156a13.436,13.436,0,0,0-5.523-10.856,13.2,13.2,0,0,0,2.352-6.928,13.41,13.41,0,0,0-5.725-11.66v-9.764a36.276,36.276,0,0,0-36.235-36.235H286.777v-6.6l19.674-9.583a7.405,7.405,0,0,0-.1-13.364l-19.622-9.191a4.232,4.232,0,0,0-8.419.617v38.123h-5.551a4.234,4.234,0,1,0,0,8.469h51.929a27.8,27.8,0,0,1,27.766,27.766v7.331H212.632v-7.331A27.8,27.8,0,0,1,240.4,245.182h14.313a4.234,4.234,0,0,0,0-8.469H240.4a36.276,36.276,0,0,0-36.235,36.235v9.823a13.368,13.368,0,0,0-2.61,19.578,13.415,13.415,0,0,0-1.047,18.516V337.94a14.552,14.552,0,0,0,6.8,12.288v7.4a15.679,15.679,0,0,0,15.662,15.662H345.258a15.679,15.679,0,0,0,15.662-15.662v-7.331a14.161,14.161,0,0,0,6.8-12.093V319.345A13.364,13.364,0,0,0,369.816,312.156Zm-83.04-91.464V207.349l13.964,6.541ZM359.255,338.2a5.688,5.688,0,0,1-11.357.451,4.264,4.264,0,0,0-8.5-.006,5.688,5.688,0,0,1-11.342-.023,4.287,4.287,0,0,0-4.25-3.918h-.015a4.289,4.289,0,0,0-4.237,3.941,5.688,5.688,0,0,1-11.34.006,4.264,4.264,0,0,0-8.5-.006,5.688,5.688,0,0,1-11.34.006,4.264,4.264,0,0,0-8.5-.006,5.688,5.688,0,0,1-11.343-.023,4.287,4.287,0,0,0-4.25-3.918h-.015a4.289,4.289,0,0,0-4.237,3.941,5.688,5.688,0,0,1-11.34.006,4.264,4.264,0,0,0-8.5-.006,5.688,5.688,0,0,1-11.34.008,4.264,4.264,0,0,0-8.5-.007,5.657,5.657,0,0,1-5.561,5.239,5.4,5.4,0,0,1-3.967-1.626,6.1,6.1,0,0,1-1.83-4.32V325.485a13.525,13.525,0,0,0,1.767.12H247a13.4,13.4,0,0,0,9.214-3.666,13.4,13.4,0,0,0,9.214,3.666h37.356l1.842,2.5a7.832,7.832,0,0,0,6.249,3.207h.106a7.827,7.827,0,0,0,6.224-3.045l2.07-2.66h37.094a13.456,13.456,0,0,0,2.888-.316V338.2ZM212.131,288.747h141.08a4.98,4.98,0,0,1,4.974,5.226,5.172,5.172,0,0,1-5.234,4.734H331.543a4.234,4.234,0,0,0-3.342,1.634l-17.214,22.121-16.25-22.034a4.236,4.236,0,0,0-3.408-1.721H211.871a4.979,4.979,0,0,1-4.974-5.226A5.173,5.173,0,0,1,212.131,288.747Zm144.235,18.429a4.98,4.98,0,0,1,0,9.959h-30.5l7.75-9.96h22.754Zm-90.94,0h23.764l7.345,9.96h-31.11a4.98,4.98,0,1,1,0-9.96Zm-18.428,0a4.98,4.98,0,0,1,0,9.959H210.743a4.98,4.98,0,0,1,0-9.959H247Zm98.26,57.641H222.972a7.2,7.2,0,0,1-7.193-7.193V352.31a14.092,14.092,0,0,0,8.836-4.013,14.084,14.084,0,0,0,19.813-.03,14.083,14.083,0,0,0,19.844,0,14.083,14.083,0,0,0,19.844,0,14.085,14.085,0,0,0,19.844,0,14.083,14.083,0,0,0,19.844,0,14.083,14.083,0,0,0,19.844,0,14.168,14.168,0,0,0,8.805,4.04v5.317A7.2,7.2,0,0,1,345.258,364.817Z" transform="translate(-90.653 -84.625)" fill="#202020"/><path d="M279.043,299.122a4.234,4.234,0,1,0,0,8.469h2.635a4.234,4.234,0,0,0,0-8.469Z" transform="translate(-124.404 -130.242)" fill="#202020"/><path d="M256.375,321.713a4.234,4.234,0,1,0,0,8.469h2.635a4.234,4.234,0,1,0,0-8.469Z" transform="translate(-114.534 -140.078)" fill="#202020"/><path d="M319.044,320.591h35.382a4.234,4.234,0,1,0,0-8.469H319.044a4.234,4.234,0,0,0,0,8.469Z" transform="translate(-141.821 -135.902)" fill="#202020"/><path d="M417.376,320.591a4.234,4.234,0,0,0,0-8.469h-4.329a4.234,4.234,0,1,0,0,8.469Z" transform="translate(-182.751 -135.902)" fill="#202020"/><path d="M111.331,280.192h-71.2a2.07,2.07,0,0,1-2.061-1.931L37.2,264.874h65.236a4.234,4.234,0,0,0,0-8.469H36.643l-6.287-96.192H42.434a30.766,30.766,0,0,1,22.857,10.192l22.495,25.042A70.17,70.17,0,0,0,101.7,207.356a4.234,4.234,0,0,0,4.619-7.1,61.642,61.642,0,0,1-12.233-10.469L71.591,164.747a39.246,39.246,0,0,0-29.157-13H29.8l-1.476-22.583H42.435a61.859,61.859,0,0,1,45.957,20.494l17.679,19.681a4.234,4.234,0,0,0,6.3-5.659L94.692,144a70.341,70.341,0,0,0-52.258-23.3H27.772L26.339,98.759H163.1l-2.36,36.108a4.234,4.234,0,1,0,8.451.553l2.4-36.661h.272a9.179,9.179,0,0,0,9.169-9.169v-10.1a9.179,9.179,0,0,0-9.169-9.169h-3.9l-4.211-11.885a12.155,12.155,0,0,0-11.436-8.081H106.727v-11.2l22.887-17.569A6.984,6.984,0,0,0,130.9,11.8l-6.966-9.074a6.992,6.992,0,0,0-9.792-1.286L87.364,22a15.546,15.546,0,0,0-6.043,12.258v16.1H37.131a12.155,12.155,0,0,0-11.436,8.081L21.483,70.325h-3.9a9.179,9.179,0,0,0-9.169,9.169v10.1a9.179,9.179,0,0,0,9.169,9.169h.272L29.62,278.814a10.558,10.558,0,0,0,10.511,9.847h71.2a4.234,4.234,0,0,0,0-8.469ZM89.79,34.256a7.028,7.028,0,0,1,2.731-5.54l25.6-19.653,5.157,6.717L100.99,32.89a7.027,7.027,0,0,0-2.731,5.54V50.359H89.79ZM16.88,89.59v-10.1a.7.7,0,0,1,.7-.7H44.369a4.234,4.234,0,1,0,0-8.469h-13.9l3.209-9.056a3.671,3.671,0,0,1,3.454-2.44H152.308a3.67,3.67,0,0,1,3.454,2.44l3.209,9.056H62.414a4.234,4.234,0,1,0,0,8.469H171.859a.7.7,0,0,1,.7.7v10.1a.7.7,0,0,1-.7.7H17.58a.7.7,0,0,1-.7-.7Z" transform="translate(-8.411 0)" fill="#202020"/><path d="M85.13,390.89h4.146a4.234,4.234,0,0,0,0-8.469H85.13a10.486,10.486,0,0,0-10.474,10.474v7.486A10.486,10.486,0,0,0,85.13,410.854h37.185a10.486,10.486,0,0,0,10.474-10.474v-7.486a10.486,10.486,0,0,0-10.474-10.474H107.322a4.234,4.234,0,0,0,0,8.469h14.993a2.007,2.007,0,0,1,2,2v7.486a2.007,2.007,0,0,1-2,2H85.13a2.007,2.007,0,0,1-2-2v-7.486A2.007,2.007,0,0,1,85.13,390.89Z" transform="translate(-37.255 -166.511)" fill="#202020"/><path d="M174.471,202.854a4.234,4.234,0,0,0,0,8.469h3.08a4.234,4.234,0,1,0,0-8.469Z" transform="translate(-78.872 -88.325)" fill="#202020"/><path d="M209.691,202.854a4.234,4.234,0,1,0,0,8.469h19.575a4.234,4.234,0,1,0,0-8.469Z" transform="translate(-94.207 -88.325)" fill="#202020"/></g></g><g transform="translate(108.413 111.88)" opacity="0.997"><g transform="translate(12.646 4.232)"><path d="M168.33,309.059l-2.894-6.725V273.281c0-.335,5.213-1.734,5.229-1.738l4.643-74.594,2.654-40.616s4.2-13.083,2.3-13.083-146.111-1.3-146.111-1.3l-1.987,14.379,2,30.662,6.942,2.829,1.911,20.821-6.858,6.267.032,1.1,7.995,122.334a6.3,6.3,0,0,0,6.284,5.889h71.2l36.495-.017a8.365,8.365,0,0,0,8.339-7.842l1.825-29.318Z" transform="translate(-22.988 -66.04)" fill="#cdcdcd"/><g transform="translate(190.679 111.831)"><path d="M375.657,215.881a3.175,3.175,0,0,1,.045,5.725L353.644,232.35V205.572Z" transform="translate(-353.644 -205.572)" fill="#c3c3c3"/></g><g transform="translate(11.162 120.695)"><path d="M172.2,306.078,169.863,343.6l-.316-.017-2.32-2.287L115.882,300.15a65.678,65.678,0,0,1-13.07-11.19l-22.5-25.039a35,35,0,0,0-26-11.6H38.274l-.559.04H37.71l-2.027-31.052.565-.04H54.309a66.1,66.1,0,0,1,49.108,21.9l17.677,19.681,49.6,41.847Z" transform="translate(-35.683 -221.272)" fill="#f9f7f8"/><g transform="translate(102.348 31.397)"><path d="M365.252,308.883v20.032H216.963V308.883a32,32,0,0,1,32-32h84.287A32,32,0,0,1,365.252,308.883Z" transform="translate(-216.963 -276.882)" fill="#e6e6e6"/></g><path d="M283.135,276.882H248.963a32,32,0,0,0-32,32v20.032h34.172V308.883A32,32,0,0,1,283.135,276.882Z" transform="translate(-114.614 -245.485)" fill="#dedede"/></g><g transform="translate(72.91)"><path d="M161.988,56.729V41.694a2.749,2.749,0,0,1,1.076-2.181L186.53,21.5a2.749,2.749,0,0,0,.506-3.856l-6.965-9.073a2.75,2.75,0,0,0-3.856-.507L149.437,28.62a11.219,11.219,0,0,0-4.387,8.9v48.1h17.958Z" transform="translate(-145.05 -7.495)" fill="#f1eff1"/></g><g transform="translate(9.175 75.913)"><path d="M81.753,340.348,74.226,225.159l-8.7-12.178L67.855,194l4.045-4.423-2.173-33.245,1.941-14.043-37.518-.336-1.987,14.379,2,30.662,6.942,2.829,1.911,20.821-5.382,3.415-1.481,2.7.037,1.259,7.995,122.334a6.3,6.3,0,0,0,6.284,5.889H88.037a6.3,6.3,0,0,1-6.284-5.889Z" transform="translate(-32.163 -141.953)" fill="#c3c3c3"/><path d="M75.76,259.7l-2.326-35.581a65.908,65.908,0,0,0-19.124-2.842H36.249l-.562.039,2.029,31.052h0l.565-.04H54.31A35,35,0,0,1,75.76,259.7Z" transform="translate(-33.697 -176.49)" fill="#efedef"/><g transform="translate(10.857 180.498)"><path d="M175.867,461.652l-.988,15.927a8.365,8.365,0,0,1-8.339,7.842l-36.495.017h-71.2a6.3,6.3,0,0,1-6.284-5.889l-1.169-17.892.062-.006H175.867Z" transform="translate(-51.393 -461.652)" fill="#c3c3c3"/></g><path d="M96.41,485.438a6.3,6.3,0,0,1-6.283-5.889l-1.17-17.9h-37.5l-.062.006,1.16,17.755.009.137a6.295,6.295,0,0,0,6.284,5.889Z" transform="translate(-40.536 -281.154)" fill="#b9b9b9"/></g><path d="M125.58,409.884H88.4a6.239,6.239,0,0,1-6.239-6.239v-7.486A6.239,6.239,0,0,1,88.4,389.92H125.58a6.239,6.239,0,0,1,6.239,6.239v7.486A6.239,6.239,0,0,1,125.58,409.884Z" transform="translate(-44.756 -174.008)" fill="#f9f7f8"/><path d="M88.4,389.921a6.239,6.239,0,0,0-6.239,6.239v7.486a6.239,6.239,0,0,0,6.239,6.239h12.614l-1.3-19.964Z" transform="translate(-44.756 -174.009)" fill="#efedef"/><path d="M367.676,452.918V461.9a11.427,11.427,0,0,1-11.427,11.427H233.963A11.427,11.427,0,0,1,222.536,461.9V433.848H367.678Z" transform="translate(-105.879 -193.135)" fill="#e6e6e6"/><path d="M250.385,461.9V433.849H222.536V461.9a11.427,11.427,0,0,0,11.427,11.427h27.849A11.427,11.427,0,0,1,250.385,461.9Z" transform="translate(-105.879 -193.135)" fill="#dedede"/><path d="M369.165,395.241H357.875V379.212H225.027v16.132h-14.61l.027,15.454.028,7.91a10.134,10.134,0,0,0,10.147,10.144,9.923,9.923,0,0,0,9.671-9.183.03.03,0,1,1,.059,0,9.922,9.922,0,0,0,19.785-.072.029.029,0,1,1,.059,0,9.922,9.922,0,0,0,19.784-.069.029.029,0,1,1,.059,0,9.922,9.922,0,0,0,19.784-.069.029.029,0,1,1,.059,0,9.922,9.922,0,0,0,19.785-.07.029.029,0,1,1,.059,0,9.922,9.922,0,0,0,19.785-.07.029.029,0,1,1,.059,0,9.922,9.922,0,0,0,19.784-.07.029.029,0,1,1,.059,0,9.922,9.922,0,0,0,19.811-.839l-.029-8.17Z" transform="translate(-100.602 -169.346)" fill="#d1d1d1"/><path d="M369.193,410.059H262.161a30.847,30.847,0,0,1-30.847-30.847h-6.287v16.132h-14.61l.027,15.454.028,7.911a10.09,10.09,0,0,0,9.868,10.146,9.922,9.922,0,0,0,9.949-9.185.03.03,0,1,1,.059,0,9.922,9.922,0,0,0,19.784-.071h.059a9.922,9.922,0,0,0,19.784-.07.029.029,0,1,1,.059,0,9.922,9.922,0,0,0,19.784-.069.029.029,0,1,1,.059,0,9.922,9.922,0,0,0,19.785-.07.029.029,0,1,1,.059,0,9.922,9.922,0,0,0,19.785-.07.029.029,0,1,1,.059,0,9.922,9.922,0,0,0,19.784-.07.029.029,0,1,1,.059,0,9.922,9.922,0,0,0,19.811-.8l-.029-8.205Z" transform="translate(-100.602 -169.346)" fill="#d1d1d1"/><path d="M250.264,386.684H214.008a9.214,9.214,0,0,0,0,18.428h36.256a9.214,9.214,0,1,0,0-18.428Z" transform="translate(-98.154 -172.599)" fill="#c3c3c3"/><path d="M226.623,397.726a9.215,9.215,0,0,1-9.031-11.042h-3.583a9.214,9.214,0,0,0,0,18.428h36.256a9.216,9.216,0,0,0,9.032-7.386Z" transform="translate(-98.154 -172.599)" fill="#b9b9b9"/><path d="M334.51,386.684H310.866a9.214,9.214,0,1,0,0,18.428h90.941a9.214,9.214,0,0,0,0-18.428h-67.3Z" transform="translate(-140.327 -172.599)" fill="#c3c3c3"/><path d="M407.624,398.205H316.683a9.214,9.214,0,0,1-9.214-9.214,9.321,9.321,0,0,1,.087-1.205,9.209,9.209,0,0,0,3.309,17.806h90.941a9.209,9.209,0,0,0,9.126-8.009,9.16,9.16,0,0,1-3.308.623Z" transform="translate(-140.327 -173.079)" fill="#b9b9b9"/><path d="M357.349,354.043H216.268a9.386,9.386,0,0,0-9.464,8.769,9.214,9.214,0,0,0,9.2,9.659h79.458l16.7,22.646a3.657,3.657,0,0,0,5.829.075l17.682-22.722h21.409a9.385,9.385,0,0,0,9.464-8.769A9.214,9.214,0,0,0,357.349,354.043Z" transform="translate(-99.024 -158.387)" fill="#eee"/><path d="M320.025,389.782,304.787,369.12a4.883,4.883,0,0,0-3.929-1.984l-45.489-.278a12.814,12.814,0,0,1-12.736-12.814H216.269a9.386,9.386,0,0,0-9.464,8.768,9.215,9.215,0,0,0,9.2,9.66h79.458l16.7,22.647a3.657,3.657,0,0,0,5.829.075l3.348-4.3a3.632,3.632,0,0,1-1.321-1.109Z" transform="translate(-99.025 -158.387)" fill="#ebebeb"/><path d="M172.061,101.959a7.9,7.9,0,0,0-7.445-5.26H49.439a7.9,7.9,0,0,0-7.445,5.26l-5.211,14.7-.106,10.9H177.271v-10.9Z" transform="translate(-24.954 -46.336)" fill="#eee"/><path d="M77.332,101.959a7.9,7.9,0,0,1,7.445-5.26H49.439a7.9,7.9,0,0,0-7.445,5.26l-5.211,14.7-.106,10.9H72.015l.106-10.9Z" transform="translate(-24.954 -46.336)" fill="#e9e9e9"/><path d="M175.125,152.026H20.846a4.934,4.934,0,0,1-4.934-4.934V137a4.934,4.934,0,0,1,4.934-4.935H175.125A4.934,4.934,0,0,1,180.06,137v10.1A4.935,4.935,0,0,1,175.125,152.026Z" transform="translate(-15.912 -61.733)" fill="#d3d3d3"/><path d="M60.447,147.091V137a4.931,4.931,0,0,1,2.8-4.444l1.142-.491H20.846a4.934,4.934,0,0,0-4.934,4.934v10.1a4.934,4.934,0,0,0,4.934,4.934H65.382a4.934,4.934,0,0,1-4.934-4.934Z" transform="translate(-15.912 -61.732)" fill="#e1e1e1"/></g><g transform="translate(8.411 0)"><path d="M369.816,312.156a13.436,13.436,0,0,0-5.523-10.856,13.2,13.2,0,0,0,2.352-6.928,13.41,13.41,0,0,0-5.725-11.66v-9.764a36.276,36.276,0,0,0-36.235-36.235H286.777v-6.6l19.674-9.583a7.405,7.405,0,0,0-.1-13.364l-19.622-9.191a4.232,4.232,0,0,0-8.419.617v38.123h-5.551a4.234,4.234,0,1,0,0,8.469h51.929a27.8,27.8,0,0,1,27.766,27.766v7.331H212.632v-7.331A27.8,27.8,0,0,1,240.4,245.182h14.313a4.234,4.234,0,0,0,0-8.469H240.4a36.276,36.276,0,0,0-36.235,36.235v9.823a13.368,13.368,0,0,0-2.61,19.578,13.415,13.415,0,0,0-1.047,18.516V337.94a14.552,14.552,0,0,0,6.8,12.288v7.4a15.679,15.679,0,0,0,15.662,15.662H345.258a15.679,15.679,0,0,0,15.662-15.662v-7.331a14.161,14.161,0,0,0,6.8-12.093V319.345A13.364,13.364,0,0,0,369.816,312.156Zm-83.04-91.464V207.349l13.964,6.541ZM359.255,338.2a5.688,5.688,0,0,1-11.357.451,4.264,4.264,0,0,0-8.5-.006,5.688,5.688,0,0,1-11.342-.023,4.287,4.287,0,0,0-4.25-3.918h-.015a4.289,4.289,0,0,0-4.237,3.941,5.688,5.688,0,0,1-11.34.006,4.264,4.264,0,0,0-8.5-.006,5.688,5.688,0,0,1-11.34.006,4.264,4.264,0,0,0-8.5-.006,5.688,5.688,0,0,1-11.343-.023,4.287,4.287,0,0,0-4.25-3.918h-.015a4.289,4.289,0,0,0-4.237,3.941,5.688,5.688,0,0,1-11.34.006,4.264,4.264,0,0,0-8.5-.006,5.688,5.688,0,0,1-11.34.008,4.264,4.264,0,0,0-8.5-.007,5.657,5.657,0,0,1-5.561,5.239,5.4,5.4,0,0,1-3.967-1.626,6.1,6.1,0,0,1-1.83-4.32V325.485a13.525,13.525,0,0,0,1.767.12H247a13.4,13.4,0,0,0,9.214-3.666,13.4,13.4,0,0,0,9.214,3.666h37.356l1.842,2.5a7.832,7.832,0,0,0,6.249,3.207h.106a7.827,7.827,0,0,0,6.224-3.045l2.07-2.66h37.094a13.456,13.456,0,0,0,2.888-.316V338.2ZM212.131,288.747h141.08a4.98,4.98,0,0,1,4.974,5.226,5.172,5.172,0,0,1-5.234,4.734H331.543a4.234,4.234,0,0,0-3.342,1.634l-17.214,22.121-16.25-22.034a4.236,4.236,0,0,0-3.408-1.721H211.871a4.979,4.979,0,0,1-4.974-5.226A5.173,5.173,0,0,1,212.131,288.747Zm144.235,18.429a4.98,4.98,0,0,1,0,9.959h-30.5l7.75-9.96h22.754Zm-90.94,0h23.764l7.345,9.96h-31.11a4.98,4.98,0,1,1,0-9.96Zm-18.428,0a4.98,4.98,0,0,1,0,9.959H210.743a4.98,4.98,0,0,1,0-9.959H247Zm98.26,57.641H222.972a7.2,7.2,0,0,1-7.193-7.193V352.31a14.092,14.092,0,0,0,8.836-4.013,14.084,14.084,0,0,0,19.813-.03,14.083,14.083,0,0,0,19.844,0,14.083,14.083,0,0,0,19.844,0,14.085,14.085,0,0,0,19.844,0,14.083,14.083,0,0,0,19.844,0,14.083,14.083,0,0,0,19.844,0,14.168,14.168,0,0,0,8.805,4.04v5.317A7.2,7.2,0,0,1,345.258,364.817Z" transform="translate(-90.653 -84.625)" fill="#909090"/><path d="M279.043,299.122a4.234,4.234,0,1,0,0,8.469h2.635a4.234,4.234,0,0,0,0-8.469Z" transform="translate(-124.404 -130.242)" fill="#909090"/><path d="M256.375,321.713a4.234,4.234,0,1,0,0,8.469h2.635a4.234,4.234,0,1,0,0-8.469Z" transform="translate(-114.534 -140.078)" fill="#909090"/><path d="M319.044,320.591h35.382a4.234,4.234,0,1,0,0-8.469H319.044a4.234,4.234,0,0,0,0,8.469Z" transform="translate(-141.821 -135.902)" fill="#909090"/><path d="M417.376,320.591a4.234,4.234,0,0,0,0-8.469h-4.329a4.234,4.234,0,1,0,0,8.469Z" transform="translate(-182.751 -135.902)" fill="#909090"/><path d="M111.331,280.192h-71.2a2.07,2.07,0,0,1-2.061-1.931L37.2,264.874h65.236a4.234,4.234,0,0,0,0-8.469H36.643l-6.287-96.192H42.434a30.766,30.766,0,0,1,22.857,10.192l22.495,25.042A70.17,70.17,0,0,0,101.7,207.356a4.234,4.234,0,0,0,4.619-7.1,61.642,61.642,0,0,1-12.233-10.469L71.591,164.747a39.246,39.246,0,0,0-29.157-13H29.8l-1.476-22.583H42.435a61.859,61.859,0,0,1,45.957,20.494l17.679,19.681a4.234,4.234,0,0,0,6.3-5.659L94.692,144a70.341,70.341,0,0,0-52.258-23.3H27.772L26.339,98.759H163.1l-2.36,36.108a4.234,4.234,0,1,0,8.451.553l2.4-36.661h.272a9.179,9.179,0,0,0,9.169-9.169v-10.1a9.179,9.179,0,0,0-9.169-9.169h-3.9l-4.211-11.885a12.155,12.155,0,0,0-11.436-8.081H106.727v-11.2l22.887-17.569A6.984,6.984,0,0,0,130.9,11.8l-6.966-9.074a6.992,6.992,0,0,0-9.792-1.286L87.364,22a15.546,15.546,0,0,0-6.043,12.258v16.1H37.131a12.155,12.155,0,0,0-11.436,8.081L21.483,70.325h-3.9a9.179,9.179,0,0,0-9.169,9.169v10.1a9.179,9.179,0,0,0,9.169,9.169h.272L29.62,278.814a10.558,10.558,0,0,0,10.511,9.847h71.2a4.234,4.234,0,0,0,0-8.469ZM89.79,34.256a7.028,7.028,0,0,1,2.731-5.54l25.6-19.653,5.157,6.717L100.99,32.89a7.027,7.027,0,0,0-2.731,5.54V50.359H89.79ZM16.88,89.59v-10.1a.7.7,0,0,1,.7-.7H44.369a4.234,4.234,0,1,0,0-8.469h-13.9l3.209-9.056a3.671,3.671,0,0,1,3.454-2.44H152.308a3.67,3.67,0,0,1,3.454,2.44l3.209,9.056H62.414a4.234,4.234,0,1,0,0,8.469H171.859a.7.7,0,0,1,.7.7v10.1a.7.7,0,0,1-.7.7H17.58a.7.7,0,0,1-.7-.7Z" transform="translate(-8.411 0)" fill="#909090"/><path d="M85.13,390.89h4.146a4.234,4.234,0,0,0,0-8.469H85.13a10.486,10.486,0,0,0-10.474,10.474v7.486A10.486,10.486,0,0,0,85.13,410.854h37.185a10.486,10.486,0,0,0,10.474-10.474v-7.486a10.486,10.486,0,0,0-10.474-10.474H107.322a4.234,4.234,0,0,0,0,8.469h14.993a2.007,2.007,0,0,1,2,2v7.486a2.007,2.007,0,0,1-2,2H85.13a2.007,2.007,0,0,1-2-2v-7.486A2.007,2.007,0,0,1,85.13,390.89Z" transform="translate(-37.255 -166.511)" fill="#909090"/><path d="M174.471,202.854a4.234,4.234,0,0,0,0,8.469h3.08a4.234,4.234,0,1,0,0-8.469Z" transform="translate(-78.872 -88.325)" fill="#909090"/><path d="M209.691,202.854a4.234,4.234,0,1,0,0,8.469h19.575a4.234,4.234,0,1,0,0-8.469Z" transform="translate(-94.207 -88.325)" fill="#909090"/></g></g></g></svg>
